<svg width="28" height="28" viewBox="0 0 28 28" fill="none" xmlns="http://www.w3.org/2000/svg">
<g id="Group 433">
<rect id="Rectangle Copy 228" y="2.80005" width="28" height="25.2" rx="3" fill="#0BB885"/>
<g id="Rectangle Copy 229">
<path d="M0 5.80005C0 4.1432 1.34315 2.80005 3 2.80005H25C26.6569 2.80005 28 4.14319 28 5.80005V11.2H0V5.80005Z" fill="#98FFE0"/>
</g>
<path id="Vector 403 (Stroke)" fill-rule="evenodd" clip-rule="evenodd" d="M7.00004 0C7.77324 0 8.40004 0.626801 8.40004 1.4V4.2C8.40004 4.9732 7.77324 5.6 7.00004 5.6C6.22684 5.6 5.60004 4.9732 5.60004 4.2V1.4C5.60004 0.626801 6.22684 0 7.00004 0Z" fill="#0BB885"/>
<path id="Vector 404 (Stroke)" fill-rule="evenodd" clip-rule="evenodd" d="M21 0C21.7732 0 22.4 0.626801 22.4 1.4V4.2C22.4 4.9732 21.7732 5.6 21 5.6C20.2268 5.6 19.6 4.9732 19.6 4.2V1.4C19.6 0.626801 20.2268 0 21 0Z" fill="#0BB885"/>
</g>
</svg>
