<svg width="18" height="20" viewBox="0 0 18 20" fill="none" xmlns="http://www.w3.org/2000/svg">
<g id="Frame 347">
<g id="Group 401">
<path id="Rectangle 193" d="M17.9998 10.6667C17.9998 12.3236 16.6566 13.6667 14.9998 13.6667H6.59976C4.9429 13.6667 3.59975 12.3236 3.59975 10.6667V5.66675C3.59975 4.00989 4.9429 2.66675 6.59975 2.66675H12.5998L14.8763 1.12098C16.2042 0.219311 17.9998 1.17049 17.9998 2.77559V10.6667Z" fill="#60809E"/>
<path id="Rectangle 192" d="M0 9.33325C0 7.6764 1.34315 6.33325 3 6.33325H11.4C13.0569 6.33325 14.4 7.6764 14.4 9.33325V14.3333C14.4 15.9901 13.0569 17.3333 11.4 17.3333H4.5L3.26335 18.3409C1.95679 19.4055 0 18.4758 0 16.7904V9.33325Z" fill="#41576B"/>
<path id="Vector 409 (Stroke)" fill-rule="evenodd" clip-rule="evenodd" d="M3.6001 11.8334C3.6001 11.3272 4.00304 10.9167 4.5001 10.9167H9.9001C10.3972 10.9167 10.8001 11.3272 10.8001 11.8334C10.8001 12.3397 10.3972 12.7501 9.9001 12.7501H4.5001C4.00304 12.7501 3.6001 12.3397 3.6001 11.8334Z" fill="#60809E"/>
</g>
</g>
</svg>
