<svg width="7" height="11" viewBox="0 0 7 11" fill="none" xmlns="http://www.w3.org/2000/svg">
<g id="$">
<path id="$_2" d="M2.80729 11V0H3.74305V11H2.80729ZM0.121528 3.57918C0.121528 3.07014 0.255208 2.62075 0.522569 2.23102C0.78993 1.84129 1.15856 1.53905 1.62847 1.32429C2.10648 1.10159 2.65741 0.990239 3.28125 0.990239C3.88079 0.990239 4.3993 1.09364 4.8368 1.30043C5.28241 1.50723 5.62674 1.80152 5.86979 2.1833C6.12095 2.56508 6.25463 3.01844 6.27083 3.54338H4.76389C4.74768 3.1457 4.6059 2.83948 4.33854 2.62473C4.07928 2.40998 3.71875 2.3026 3.25694 2.3026C2.76273 2.3026 2.36979 2.41396 2.07812 2.63666C1.78646 2.85141 1.64062 3.14967 1.64062 3.53145C1.64062 3.84165 1.72975 4.09219 1.90799 4.28308C2.08623 4.47397 2.36979 4.61316 2.75868 4.70065L4.15625 5.01085C4.93403 5.17787 5.50521 5.45228 5.86979 5.83406C6.23437 6.20788 6.41667 6.71294 6.41667 7.34924C6.41667 7.88214 6.28299 8.35141 6.01562 8.75705C5.74826 9.16269 5.36748 9.47686 4.87326 9.69957C4.38715 9.91432 3.81597 10.0217 3.15972 10.0217C2.53588 10.0217 1.989 9.91829 1.5191 9.7115C1.04919 9.49675 0.680555 9.19848 0.413194 8.8167C0.153935 8.43492 0.0162037 7.98554 0 7.46855H1.55556C1.56366 7.85828 1.70949 8.16052 1.99306 8.37527C2.27662 8.59002 2.66956 8.6974 3.17187 8.6974C3.7066 8.6974 4.12789 8.59002 4.43576 8.37527C4.75174 8.15257 4.90972 7.85828 4.90972 7.49241C4.90972 6.88792 4.54919 6.50615 3.82812 6.34707L2.4184 6.04881C1.65683 5.88973 1.0816 5.6034 0.692708 5.1898C0.311921 4.76826 0.121528 4.23138 0.121528 3.57918Z" fill="white"/>
</g>
</svg>
