<svg width="17" height="16" viewBox="0 0 17 16" fill="none" xmlns="http://www.w3.org/2000/svg">
<g id="Frame 343">
<g id="Group 399">
<path id="Union" fill-rule="evenodd" clip-rule="evenodd" d="M0 7.45345C0 6.77185 0.289293 6.12228 0.795921 5.66632L6.40604 0.617208C7.32042 -0.205735 8.7085 -0.205736 9.62288 0.617207L15.233 5.66632C15.7396 6.12228 16.0289 6.77185 16.0289 7.45345V13.5957C16.0289 14.9235 14.9525 16 13.6246 16H11.2202L11.2158 16H4.81315L4.80868 16H2.40434C1.07646 16 0 14.9235 0 13.5957V7.45345Z" fill="#41576B"/>
<g id="Rectangle 185">
<path d="M5.61005 11.5884C5.61005 10.4838 6.50548 9.58838 7.61005 9.58838H8.41872C9.52329 9.58838 10.4187 10.4838 10.4187 11.5884V15.9999H5.61005V11.5884Z" fill="url(#paint0_linear_121_1275)"/>
<path d="M5.61005 11.5884C5.61005 10.4838 6.50548 9.58838 7.61005 9.58838H8.41872C9.52329 9.58838 10.4187 10.4838 10.4187 11.5884V15.9999H5.61005V11.5884Z" fill="#60809E"/>
</g>
</g>
</g>
<defs>
<linearGradient id="paint0_linear_121_1275" x1="8.01438" y1="9.58838" x2="8.01438" y2="15.9999" gradientUnits="userSpaceOnUse">
<stop stop-color="#6073D8"/>
<stop offset="1" stop-color="#5C5ACA"/>
</linearGradient>
</defs>
</svg>
