<svg width="32" height="32" viewBox="0 0 32 32" fill="none" xmlns="http://www.w3.org/2000/svg">
<g id="Group 413">
<path id="Rectangle" d="M0 8C0 3.58172 3.58172 0 8 0H24C28.4183 0 32 3.58172 32 8V24C32 28.4183 28.4183 32 24 32H8C3.58172 32 0 28.4183 0 24V8Z" fill="#FFA57E"/>
<path id="Rectangle_2" d="M12 16C12 11.5817 15.5817 8 20 8H32V24C32 28.4183 28.4183 32 24 32H12V16Z" fill="#FF9061"/>
<path id="Rectangle_3" d="M12 26C12 21.5817 15.5817 18 20 18H32V24C32 28.4183 28.4183 32 24 32H12V26Z" fill="#FF814A"/>
</g>
</svg>
