<svg width="16" height="18" viewBox="0 0 16 18" fill="none" xmlns="http://www.w3.org/2000/svg">
<g id="Frame 350">
<g id="Group 408">
<path id="Union" d="M7.96205 0C9.42783 0 10.6161 1.18824 10.6161 2.65402V15.0394C10.6161 16.5052 9.42783 17.6935 7.96205 17.6935H2.65402C1.18824 17.6935 0 16.5052 0 15.0394V2.65402C0 1.18824 1.18824 0 2.65402 0H7.96205Z" fill="#41576B"/>
<path id="Union_2" d="M13.011 5.12484C12.6655 4.77935 12.1054 4.77935 11.7599 5.12484C11.4144 5.47032 11.4144 6.03047 11.7599 6.37595L13.346 7.96208H5.30804C4.81945 7.96208 4.42337 8.35816 4.42337 8.84675C4.42337 9.33534 4.81945 9.73142 5.30804 9.73142H13.346L11.7599 11.3175C11.4144 11.663 11.4144 12.2232 11.7599 12.5687C12.1054 12.9141 12.6655 12.9141 13.011 12.5687L15.4818 10.0979C16.1728 9.40689 16.1728 8.28661 15.4818 7.59563L13.011 5.12484Z" fill="#60809E"/>
</g>
</g>
</svg>
