<svg width="16" height="16" viewBox="0 0 16 16" fill="none" xmlns="http://www.w3.org/2000/svg">
<g id="Frame 346">
<g id="Group 404">
<path id="Rectangle 190" d="M16 13V6.19998C16 4.54312 14.6569 3.19998 13 3.19998H2.4V1.59998H0V13C0 14.6568 1.34315 16 3 16H13C14.6569 16 16 14.6568 16 13Z" fill="#41576B"/>
<path id="Rectangle 256" d="M11.2001 9.6C11.2001 8.71634 11.9164 8 12.8001 8H16.0001V11.2H12.8001C11.9164 11.2 11.2001 10.4837 11.2001 9.6Z" fill="#60809E"/>
<path id="Subtract" d="M1.6 0C0.716344 0 0 0.716344 0 1.6C0 2.48366 0.716344 3.2 1.6 3.2H13.6C13.8805 3.2 14.1498 3.24812 14.4 3.33656V0.8C14.4 0.358172 14.0418 0 13.6 0H1.6Z" fill="#60809E"/>
</g>
</g>
</svg>
