<svg width="27" height="27" viewBox="0 0 27 27" fill="none" xmlns="http://www.w3.org/2000/svg">
<g id="Group 402">
<path id="Union" fill-rule="evenodd" clip-rule="evenodd" d="M10.8 5.40002C8.66397 5.40002 6.5759 6.03343 4.79985 7.22015C3.0238 8.40687 1.63953 10.0936 0.822106 12.067C0.00467944 14.0405 -0.209197 16.212 0.207524 18.307C0.624244 20.402 1.65284 22.3264 3.16325 23.8368C4.67366 25.3472 6.59803 26.3758 8.69303 26.7925C10.788 27.2092 12.9595 26.9953 14.933 26.1779C16.9064 25.3605 18.5932 23.9762 19.7799 22.2002C20.9666 20.4241 21.6 18.3361 21.6 16.2C21.6 15.4544 20.9956 14.85 20.25 14.85H13.5C12.7544 14.85 12.15 14.2456 12.15 13.5V6.75002C12.15 6.00444 11.5456 5.40002 10.8 5.40002Z" fill="#0BB885"/>
<path id="Union_2" d="M16.2002 0C15.8422 0 15.4988 0.142232 15.2456 0.395406C14.9925 0.64858 14.8502 0.991958 14.8502 1.35V10.8C14.8502 11.158 14.9925 11.5014 15.2456 11.7546C15.4988 12.0078 15.8422 12.15 16.2002 12.15L25.6502 12.15C26.0083 12.15 26.3516 12.0078 26.6048 11.7546C26.858 11.5014 27.0002 11.158 27.0002 10.8C27.0002 7.93566 25.8624 5.18864 23.837 3.16325C21.8116 1.13785 19.0646 0 16.2002 0Z" fill="#98FFE0"/>
</g>
</svg>
