<svg width="18" height="18" viewBox="0 0 18 18" fill="none" xmlns="http://www.w3.org/2000/svg">
<g id="Group 431">
<path id="Vector" d="M5 13.8V13C5 10.7909 6.79086 9 9 9C11.2091 9 13 10.7909 13 13V13.8" stroke="#6C747D" stroke-width="1.5" stroke-linecap="round"/>
<path id="Vector_2" d="M8.99998 9.00001C10.3255 9.00001 11.4 7.92553 11.4 6.60001C11.4 5.27453 10.3255 4.20001 8.99998 4.20001C7.67446 4.20001 6.59998 5.27453 6.59998 6.60001C6.59998 7.92553 7.67446 9.00001 8.99998 9.00001Z" stroke="#6C747D" stroke-width="1.5" stroke-linecap="round" stroke-linejoin="round"/>
<path id="Vector_3" d="M9 17C13.4183 17 17 13.4183 17 9C17 4.58172 13.4183 1 9 1C4.58172 1 1 4.58172 1 9C1 13.4183 4.58172 17 9 17Z" stroke="#6C747D" stroke-width="1.5"/>
</g>
</svg>
